<svg xmlns="http://www.w3.org/2000/svg" width="64" height="64"><path fill="#B73091" d="m50 23.5 5-.9V42h-5V23.5zm8 0V42h5V22.6l-5 .9zM43 42h5V28h-5v14zM8.8 29.9c-.7 0-2.2-.1-2.2-1.5 0-1.6 2.2-1.6 3-1.6 1.4 0 3.3.4 4.6.8l1.5.5h.2v-4.5l-.2-.1c-1.6-.5-3.5-1.1-6.8-1.1C3.1 22.6 1 26 1 28.9c0 1.7.7 5.6 7.4 6.1.6 0 2.1.1 2.1 1.5 0 1.2-1.4 1.8-3.5 1.8-2.3 0-4-.6-6-1.1v4.6c2 .5 4.4.8 7.1.8 5.7 0 8.3-3.2 8.3-6.4 0-3.6-2.8-5.9-7.6-6.3zm31.1-2.2c-4.8.1-6.9 2.3-6.9 6.5V42h5v-6.3c0-2.5 0-3.6 3-3.7v-4.2c0-.2-1.1-.1-1.1-.1zM26 28c-.1 0-1 2.5-3 4.9V22.6l-5 1.1V42h5v-5.4c2 2.3 2.4 5.4 2.4 5.4h6.4c-.6-2-3.4-7.2-3.4-7.2 2.5-3.1 3.6-6.8 3.7-6.8H26zm19.5-1.5c1.4 0 2.5-1.1 2.5-2.5s-1.1-2.5-2.5-2.5S43 22.6 43 24s1.1 2.5 2.5 2.5z"/><path fill="#862165" d="m52 23.1 3-.5V42h-5l2-18.9zm7.8.1L58 42h5V22.6l-3.2.6zM43 42h5V28h-2.1L43 42zM1 28.9c0 1.7.7 5.6 7.3 6.1.6 0 3 .1 3 1.5 0 1.2-2.4 1.8-4.4 1.8-2.3 0-4-.6-6-1.1v4.6c2 .5 4.4.8 7.1.8 5.7 0 8.3-3.2 8.3-6.4 0-3.6-2.8-5.9-7.6-6.3-.7 0-2.1-.1-2.1-1.5 0-1.6 2.2-1.6 3-1.6 1.4 0 3.3.4 4.6.8l1.5.5h.2v-4.5l-.2-.1c-1.6-.5-3.5-1.1-6.8-1.1M33 34v8h5v-6.3c0-2.5 0-3.6 3-3.7v-4.2c0-.1-1.1-.1-1.1-.1M18 42h5v-5.4c2 2.3 4.3 5.4 4.3 5.4h4.4c-.6-2-3.4-7.2-3.4-7.2 2.5-3.1 3.6-6.8 3.7-6.8h-3c-.1 0-4 2.5-6 4.9V23m22.5 3.5c1.4 0 2.5-1.1 2.5-2.5s-1.1-2.5-2.5-2.5"/></svg>